<svg width="276" height="43" viewBox="0 0 276 43" fill="none" xmlns="http://www.w3.org/2000/svg">
<path d="M10.6727 33.4C8.80607 33.4 6.95422 33.163 5.11718 32.6889C3.28015 32.2148 1.78385 31.6222 0.628296 30.9111L3.07274 25.2667C4.10978 25.9481 5.33941 26.4963 6.76163 26.9111C8.21348 27.2963 9.62089 27.4889 10.9839 27.4889C13.4431 27.4889 14.6727 26.9111 14.6727 25.7556C14.6727 25.1926 14.332 24.8074 13.6505 24.6C12.9987 24.363 11.932 24.1407 10.4505 23.9333C8.55422 23.6667 6.98385 23.3407 5.73941 22.9556C4.49496 22.5704 3.41348 21.8741 2.49496 20.8667C1.57644 19.8593 1.11718 18.4222 1.11718 16.5556C1.11718 14.9852 1.56163 13.5926 2.45052 12.3778C3.33941 11.163 4.59867 10.2296 6.2283 9.57778C7.88756 8.8963 9.84311 8.55556 12.095 8.55556C13.7246 8.55556 15.3542 8.73333 16.9839 9.08889C18.6135 9.44444 19.9764 9.94815 21.0727 10.6L18.5839 16.1556C16.5987 15.0296 14.4357 14.4667 12.095 14.4667C10.8209 14.4667 9.85793 14.6296 9.20607 14.9556C8.58385 15.2815 8.27274 15.7111 8.27274 16.2444C8.27274 16.837 8.59867 17.2519 9.25052 17.4889C9.932 17.7259 11.0579 17.9778 12.6283 18.2444C14.4653 18.5111 16.0061 18.837 17.2505 19.2222C18.495 19.6074 19.5616 20.3037 20.4505 21.3111C21.369 22.3185 21.8283 23.7259 21.8283 25.5333C21.8283 27.0741 21.3839 28.437 20.495 29.6222C19.6061 30.8074 18.3172 31.7407 16.6283 32.4222C14.9394 33.0741 12.9542 33.4 10.6727 33.4ZM53.6925 8.55556C56.5666 8.55556 58.8481 9.45926 60.537 11.2667C62.2555 13.0444 63.1148 15.7111 63.1148 19.2667V33H55.6481V20.5111C55.6481 18.763 55.3073 17.4593 54.6259 16.6C53.974 15.7407 53.0555 15.3111 51.8703 15.3111C50.5073 15.3111 49.4259 15.7852 48.6259 16.7333C47.8259 17.6815 47.4259 19.1333 47.4259 21.0889V33H39.9592V20.5111C39.9592 17.0444 38.6851 15.3111 36.137 15.3111C34.8036 15.3111 33.737 15.7852 32.937 16.7333C32.1666 17.6815 31.7814 19.1333 31.7814 21.0889V33H24.2703V8.95556H31.4259V11.2222C32.2851 10.3333 33.3073 9.66667 34.4925 9.22222C35.6777 8.77778 36.9518 8.55556 38.3148 8.55556C39.8259 8.55556 41.2185 8.85185 42.4925 9.44444C43.7666 10.037 44.8185 10.9111 45.6481 12.0667C46.6259 10.9407 47.8111 10.0815 49.2036 9.48889C50.5962 8.86667 52.0925 8.55556 53.6925 8.55556ZM75.7925 8.55556C79.4666 8.55556 82.2814 9.47407 84.237 11.3111C86.2222 13.1185 87.2148 15.8741 87.2148 19.5778V33H80.237V30.2889C78.9629 32.363 76.7111 33.4 73.4814 33.4C71.7333 33.4 70.2073 33.0889 68.9036 32.4667C67.6296 31.8148 66.637 30.9259 65.9259 29.8C65.2444 28.6741 64.9036 27.4148 64.9036 26.0222C64.9036 23.7407 65.7185 21.963 67.3481 20.6889C69.0073 19.3852 71.5555 18.7333 74.9925 18.7333H79.7036C79.7036 17.6074 79.4962 16.763 79.0814 16.2C78.1925 15.2519 76.7555 14.7778 74.7703 14.7778C73.6148 14.7778 72.4592 14.9556 71.3036 15.3111C70.1777 15.6667 69.2148 16.1704 68.4148 16.8222L65.7925 11.3556C67.037 10.4667 68.5481 9.78518 70.3259 9.31111C72.1036 8.80741 73.9259 8.55556 75.7925 8.55556ZM75.3925 28.1556C76.3999 28.1556 77.2888 27.9185 78.0592 27.4444C78.8592 26.9407 79.4073 26.2296 79.7036 25.3111V23.2222H75.837C73.4073 23.2222 72.1925 24.037 72.1925 25.6667C72.1925 26.4074 72.474 27.0148 73.037 27.4889C73.6296 27.9333 74.4148 28.1556 75.3925 28.1556ZM98.4222 11.7111C100.111 9.60741 102.689 8.55556 106.156 8.55556V15.8C105.504 15.7111 104.941 15.6667 104.467 15.6667C102.689 15.6667 101.296 16.1852 100.289 17.2222C99.2815 18.2296 98.7778 19.7852 98.7778 21.8889V33H91.3111V8.95556H98.4222V11.7111ZM125.703 31.8889C125.021 32.3926 124.192 32.763 123.214 33C122.266 33.2667 121.244 33.4 120.147 33.4C117.303 33.4 115.096 32.6444 113.525 31.1333C111.955 29.5926 111.17 27.3407 111.17 24.3778V15.5778H107.836V9.57778H111.17V3.62222H118.681V9.57778H124.059V15.5778H118.681V24.2889C118.681 25.2074 118.903 25.9185 119.347 26.4222C119.792 26.9259 120.414 27.1778 121.214 27.1778C122.251 27.1778 123.096 26.9111 123.747 26.3778L125.703 31.8889ZM160.221 28.6889C160.221 33.163 159.095 36.4963 156.843 38.6889C154.591 40.9111 151.332 42.0222 147.065 42.0222C144.814 42.0222 142.695 41.7407 140.71 41.1778C138.725 40.6444 137.051 39.8444 135.688 38.7778L138.621 33.1778C139.569 33.9481 140.769 34.5704 142.221 35.0444C143.673 35.5185 145.095 35.7556 146.488 35.7556C148.651 35.7556 150.236 35.2519 151.243 34.2444C152.251 33.237 152.754 31.7259 152.754 29.7111V29.3111C151.125 30.9704 148.873 31.8 145.999 31.8C143.865 31.8 141.925 31.3259 140.177 30.3778C138.458 29.4 137.08 28.037 136.043 26.2889C135.036 24.5111 134.532 22.4667 134.532 20.1556C134.532 17.8741 135.036 15.8593 136.043 14.1111C137.08 12.3333 138.458 10.9704 140.177 10.0222C141.925 9.04444 143.865 8.55556 145.999 8.55556C149.11 8.55556 151.495 9.54815 153.154 11.5333V8.95556H160.221V28.6889ZM147.465 25.3556C149.065 25.3556 150.354 24.8815 151.332 23.9333C152.34 22.9852 152.843 21.7259 152.843 20.1556C152.843 18.6148 152.34 17.3704 151.332 16.4222C150.325 15.4444 149.036 14.9556 147.465 14.9556C145.925 14.9556 144.651 15.4444 143.643 16.4222C142.636 17.3704 142.132 18.6148 142.132 20.1556C142.132 21.7259 142.636 22.9852 143.643 23.9333C144.651 24.8815 145.925 25.3556 147.465 25.3556ZM171.588 11.7111C173.277 9.60741 175.855 8.55556 179.321 8.55556V15.8C178.669 15.7111 178.106 15.6667 177.632 15.6667C175.855 15.6667 174.462 16.1852 173.455 17.2222C172.447 18.2296 171.943 19.7852 171.943 21.8889V33H164.477V8.95556H171.588V11.7111ZM191.205 8.55556C194.879 8.55556 197.694 9.47407 199.649 11.3111C201.635 13.1185 202.627 15.8741 202.627 19.5778V33H195.649V30.2889C194.375 32.363 192.124 33.4 188.894 33.4C187.146 33.4 185.62 33.0889 184.316 32.4667C183.042 31.8148 182.049 30.9259 181.338 29.8C180.657 28.6741 180.316 27.4148 180.316 26.0222C180.316 23.7407 181.131 21.963 182.761 20.6889C184.42 19.3852 186.968 18.7333 190.405 18.7333H195.116C195.116 17.6074 194.909 16.763 194.494 16.2C193.605 15.2519 192.168 14.7778 190.183 14.7778C189.027 14.7778 187.872 14.9556 186.716 15.3111C185.59 15.6667 184.627 16.1704 183.827 16.8222L181.205 11.3556C182.449 10.4667 183.961 9.78518 185.738 9.31111C187.516 8.80741 189.338 8.55556 191.205 8.55556ZM190.805 28.1556C191.812 28.1556 192.701 27.9185 193.472 27.4444C194.272 26.9407 194.82 26.2296 195.116 25.3111V23.2222H191.249C188.82 23.2222 187.605 24.037 187.605 25.6667C187.605 26.4074 187.887 27.0148 188.449 27.4889C189.042 27.9333 189.827 28.1556 190.805 28.1556ZM230.546 33H223.435V30.8222C221.835 32.5407 219.612 33.4 216.768 33.4C214.575 33.4 212.605 32.8963 210.857 31.8889C209.138 30.8519 207.775 29.4 206.768 27.5333C205.761 25.637 205.257 23.4444 205.257 20.9556C205.257 18.4667 205.761 16.2889 206.768 14.4222C207.775 12.5556 209.153 11.1185 210.901 10.1111C212.65 9.07407 214.605 8.55556 216.768 8.55556C219.435 8.55556 221.553 9.32593 223.124 10.8667V0.0222211H230.546V33ZM218.101 26.9556C219.583 26.9556 220.812 26.4222 221.79 25.3556C222.768 24.2889 223.257 22.8222 223.257 20.9556C223.257 19.1185 222.768 17.6667 221.79 16.6C220.812 15.5037 219.583 14.9556 218.101 14.9556C216.561 14.9556 215.287 15.5037 214.279 16.6C213.301 17.6667 212.812 19.1185 212.812 20.9556C212.812 22.8222 213.301 24.2889 214.279 25.3556C215.287 26.4222 216.561 26.9556 218.101 26.9556ZM257.739 21.0889C257.739 21.4148 257.709 21.7704 257.65 22.1556C257.62 22.5111 257.591 22.8667 257.561 23.2222H240.761C241.117 24.4667 241.798 25.4296 242.806 26.1111C243.843 26.7926 245.146 27.1333 246.717 27.1333C247.843 27.1333 248.82 26.9704 249.65 26.6444C250.509 26.2889 251.339 25.7407 252.139 25L256.05 29.4889C253.887 32.0963 250.702 33.4 246.494 33.4C243.857 33.4 241.531 32.8667 239.517 31.8C237.502 30.7333 235.946 29.2519 234.85 27.3556C233.754 25.4593 233.206 23.3259 233.206 20.9556C233.206 18.5852 233.739 16.4667 234.806 14.6C235.902 12.7037 237.398 11.2222 239.294 10.1556C241.191 9.08889 243.309 8.55556 245.65 8.55556C247.931 8.55556 249.991 9.05926 251.828 10.0667C253.665 11.0741 255.102 12.5259 256.139 14.4222C257.206 16.3185 257.739 18.5407 257.739 21.0889ZM245.694 14.4667C244.361 14.4667 243.235 14.837 242.317 15.5778C241.428 16.3185 240.865 17.3556 240.628 18.6889H250.672C250.435 17.3852 249.872 16.363 248.983 15.6222C248.124 14.8519 247.028 14.4667 245.694 14.4667ZM267.488 11.7111C269.177 9.60741 271.755 8.55556 275.221 8.55556V15.8C274.569 15.7111 274.006 15.6667 273.532 15.6667C271.755 15.6667 270.362 16.1852 269.355 17.2222C268.347 18.2296 267.843 19.7852 267.843 21.8889V33H260.377V8.95556H267.488V11.7111Z" fill="black"/>
</svg>
