<svg width="100" height="100" viewBox="0 0 100 100" fill="none" xmlns="http://www.w3.org/2000/svg">
<path d="M75 75C88.8071 61.1929 88.8071 38.8071 75 25C61.1929 11.1929 38.8071 11.1929 25 25C11.1929 38.8071 11.1929 61.1929 25 75C38.8071 88.8071 61.1929 88.8071 75 75Z" fill="#BE0303"/>
<path d="M43.0044 69.6577C43.0044 65.5155 45.8965 62.5452 50.0388 62.5452C54.181 62.5452 56.9168 65.5155 56.995 69.6577C56.995 73.7225 54.2591 76.7702 50.0388 76.7702C45.8184 76.7702 43.0044 73.7225 43.0044 69.6577ZM46.5272 58.6374C46.0081 58.6374 45.5623 58.2133 45.5356 57.6949L43.8335 24.1725C43.8074 23.6541 44.2099 23.23 44.7289 23.23H55.2693C55.7883 23.23 56.192 23.6541 56.1665 24.1725L54.5388 57.6949C54.5134 58.2133 54.0681 58.6374 53.5491 58.6374H46.5259H46.5272Z" fill="white"/>
</svg>
