<svg width="41" height="41" viewBox="0 0 41 41" fill="none" xmlns="http://www.w3.org/2000/svg">
<g clip-path="url(#clip0_405_95)">
<path d="M38.5894 16.0607L25.9477 3.41737C24.3831 1.85735 22.2638 0.981323 20.0544 0.981323C17.845 0.981323 15.7257 1.85735 14.1611 3.41737L1.5194 16.0607C1.05344 16.5237 0.684019 17.0745 0.43254 17.6813C0.181061 18.2882 0.0525317 18.9388 0.0544025 19.5957V35.9574C0.0544025 37.2834 0.581187 38.5552 1.51887 39.4929C2.45655 40.4306 3.72832 40.9574 5.0544 40.9574H35.0544C36.3805 40.9574 37.6523 40.4306 38.5899 39.4929C39.5276 38.5552 40.0544 37.2834 40.0544 35.9574V19.5957C40.0563 18.9388 39.9277 18.2882 39.6763 17.6813C39.4248 17.0745 39.0554 16.5237 38.5894 16.0607ZM25.0544 37.624H15.0544V31.0674C15.0544 29.7413 15.5812 28.4695 16.5189 27.5318C17.4566 26.5942 18.7283 26.0674 20.0544 26.0674C21.3805 26.0674 22.6523 26.5942 23.5899 27.5318C24.5276 28.4695 25.0544 29.7413 25.0544 31.0674V37.624ZM36.7211 35.9574C36.7211 36.3994 36.5455 36.8233 36.2329 37.1359C35.9204 37.4484 35.4964 37.624 35.0544 37.624H28.3877V31.0674C28.3877 28.8572 27.5098 26.7376 25.947 25.1748C24.3842 23.612 22.2645 22.734 20.0544 22.734C17.8443 22.734 15.7247 23.612 14.1618 25.1748C12.599 26.7376 11.7211 28.8572 11.7211 31.0674V37.624H5.0544C4.61238 37.624 4.18845 37.4484 3.87589 37.1359C3.56333 36.8233 3.38774 36.3994 3.38774 35.9574V19.5957C3.38928 19.154 3.56472 18.7307 3.87607 18.4174L16.5177 5.77903C17.4572 4.84392 18.7288 4.31894 20.0544 4.31894C21.38 4.31894 22.6516 4.84392 23.5911 5.77903L36.2327 18.4224C36.5429 18.7344 36.7182 19.1557 36.7211 19.5957V35.9574Z" fill="#BCBCBC"/>
</g>
<defs>
<clipPath id="clip0_405_95">
<rect width="40" height="40" fill="white" transform="translate(0.0540466 0.945923)"/>
</clipPath>
</defs>
</svg>
